<?xml version="1.0" encoding="iso-8859-1"?>
<!-- Generator: Adobe Illustrator 19.0.0, SVG Export Plug-In . SVG Version: 6.00 Build 0)  -->
<svg version="1.1" id="Capa_1" xmlns="http://www.w3.org/2000/svg" xmlns:xlink="http://www.w3.org/1999/xlink" x="0px" y="0px"
	 viewBox="0 0 456.098 456.098" style="enable-background:new 0 0 456.098 456.098;" xml:space="preserve">
<path style="fill:#4DCFE0;" d="M221.518,172.147C220.996,172.147,220.996,172.669,221.518,172.147
	c-14.629,16.718-33.437,26.122-54.335,28.735c-5.225,21.943-25.078,38.139-48.588,38.139c-27.69,0-50.155-22.465-50.155-50.155
	c0-18.286,10.449-35.004,26.645-43.886c6.792-4.18,15.151-6.269,23.51-6.269c20.898,0,38.661,12.539,46.498,30.825
	c12.539-1.567,24.033-7.314,32.914-17.241c3.135-3.657,6.269-8.359,8.882-14.106c0.522-0.522,0.522-1.567,1.045-2.09l-72.098-68.441
	c-0.522,0-1.045,0.522-1.567,0.522c-14.629,7.314-26.122,21.42-29.257,38.139l-12.539-2.09H73.665v-0.522c0-0.522,0-1.567,0-2.612
	c0-1.567,0.522-3.657,1.045-5.224c0.522-1.567,1.045-2.612,1.045-4.18L5.224,157.518C1.567,161.175,0,165.878,0,171.102v219.429
	c0,19.331,14.629,33.959,33.959,33.959H202.71c19.331,0,33.959-14.629,33.959-33.959V171.102c0-4.18-1.567-8.359-4.702-12.016
	l-1.045-1.045c-0.522,0.522-0.522,1.567-1.045,2.09C227.788,164.31,224.653,168.49,221.518,172.147z"/>
<path style="fill:#D4E1F4;" d="M330.71,129.829v47.02c0,8.882,6.792,15.673,15.673,15.673h82.024
	c8.882,0,15.673-6.792,15.673-15.673v-48.065c-1.045,0.522-2.612,0.522-3.657,0.522L330.71,129.829L330.71,129.829z"/>
<path style="fill:#3A2C51;" d="M440.424,101.616H240.849c-7.314-39.706-41.796-70.008-83.592-70.008
	c-37.094,0-70.531,25.078-81.502,60.082c-0.522,1.567-1.045,2.612-1.045,4.18c-0.522,1.567-1.045,3.657-1.045,5.224
	c0,1.045,0,2.09,0,2.612v0.522h18.808l12.539,2.09c3.135-16.718,14.629-30.824,29.257-38.139c0.522,0,1.045-0.522,1.567-0.522
	c6.792-3.135,14.106-5.224,21.943-5.224c29.78,0,53.812,24.033,53.812,53.812v1.045c0,6.792-1.567,13.061-3.657,18.808
	c-0.522,0.522-0.522,1.567-1.045,2.09c-2.612,5.747-5.747,10.449-8.882,14.106c-8.882,9.927-20.376,15.673-32.914,17.241
	c-7.837-18.286-25.6-30.824-46.498-30.824c-8.359,0-16.718,2.09-23.51,6.269c-16.196,8.882-26.645,25.6-26.645,43.886
	c0,27.69,22.465,50.155,50.155,50.155c23.51,0,43.363-16.196,48.588-38.139c20.898-2.612,39.706-12.016,53.812-28.212
	c0,0,0-0.522,0.522-0.522c3.135-3.657,6.269-7.837,8.359-12.016c0.522-0.522,0.522-1.567,1.045-2.09
	c4.702-8.359,7.837-16.718,9.927-25.6h89.861h109.714c1.045,0,2.612,0,3.657-0.522c6.792-1.045,12.016-7.314,12.016-14.629
	C456.098,108.408,449.306,101.616,440.424,101.616z M118.596,208.196c-10.449,0-18.808-8.359-18.808-18.808
	c0-3.135,0.522-5.747,2.09-8.359c9.404,8.359,20.898,14.629,32.914,17.763C131.657,204.016,125.388,208.196,118.596,208.196z"/>
<g>
</g>
<g>
</g>
<g>
</g>
<g>
</g>
<g>
</g>
<g>
</g>
<g>
</g>
<g>
</g>
<g>
</g>
<g>
</g>
<g>
</g>
<g>
</g>
<g>
</g>
<g>
</g>
<g>
</g>
</svg>
