<svg id="Capa_1" enable-background="new 0 0 512 512" height="512" viewBox="0 0 512 512" width="512" xmlns="http://www.w3.org/2000/svg"><g><g><path d="m105.538 90.536h308.843v347.104h-308.843z" fill="#808b95"/><g><g><path d="m146.559 365.419c-23.997 8.327-47.984 8.327-71.981 0-2.156-61.823-2.547-113.344-1.18-175.168.307-13.857.697-27.724 1.18-41.581 23.997-8.327 47.984-8.327 71.981 0 .483 13.857.874 27.724 1.18 41.581 1.366 61.824.976 113.345-1.18 175.168z" fill="#f7f9f9"/><path d="m147.739 190.252h-74.342c.307-13.857.697-27.724 1.18-41.581 23.997-8.327 47.984-8.327 71.981 0 .484 13.857.874 27.724 1.181 41.581z" fill="#dae4ea"/><path d="m97.695 370.866c-7.705-.957-15.409-2.77-23.114-5.446-2.639-75.68-2.639-141.068 0-216.749 7.705-2.677 15.409-4.489 23.114-5.446-.808 79.314-.808 148.317 0 227.641z" fill="#dae4ea"/><path d="m163.52 134.386v23.123c0 8.16-6.617 14.777-14.777 14.777h-38.79-1.367l-24.913-.5-9.831.5h-1.44c-8.169 0-14.787-6.617-14.787-14.777v-23.123c0-8.169 6.617-14.787 14.787-14.787h76.34c8.161 0 14.778 6.618 14.778 14.787z" fill="#f7f9f9"/><path d="m163.52 134.386v21.422c-40.28-.771-76.87-1.979-105.904-3.123v-18.3c0-8.169 6.617-14.787 14.787-14.787h76.34c8.16.001 14.777 6.619 14.777 14.788z" fill="#dae4ea"/><path d="m109.953 172.291h-37.557c-8.16 0-14.777-6.617-14.777-14.777v-23.133c0-8.16 6.617-14.777 14.777-14.777h37.557c-8.16 0-14.777 6.617-14.777 14.777v23.133c0 8.16 6.617 14.777 14.777 14.777z" fill="#dae4ea"/><path d="m148.738 405.807-38.785 14.082-37.555-14.082c-8.162 0-14.779-6.617-14.779-14.779v-23.127c0-8.162 6.617-11.674 14.779-11.674l28.013-3.105h48.327c8.162 0 14.779 6.617 14.779 14.779v23.127c0 8.162-6.616 14.779-14.779 14.779z" fill="#f7f9f9"/><path d="m109.953 405.809h-37.557c-8.16 0-14.777-6.617-14.777-14.777v-23.133c0-8.16 6.617-14.777 14.777-14.777h26.906 10.651c-8.16 0-14.777 6.617-14.777 14.777v23.133c0 8.16 6.617 14.777 14.777 14.777z" fill="#dae4ea"/></g><g><path d="m437.425 365.419c-23.997 8.327-47.984 8.327-71.981 0-2.156-61.823-2.547-113.344-1.18-175.168.307-13.857.697-27.724 1.18-41.581 23.997-8.327 47.984-8.327 71.981 0 .483 13.857.874 27.724 1.18 41.581 1.367 61.824.977 113.345-1.18 175.168z" fill="#f7f9f9"/><path d="m438.606 190.252h-74.342c.307-13.857.697-27.724 1.18-41.581 23.997-8.327 47.984-8.327 71.981 0 .484 13.857.874 27.724 1.181 41.581z" fill="#dae4ea"/><path d="m388.562 370.866c-7.705-.957-15.409-2.77-23.114-5.446-2.639-75.68-2.639-141.068 0-216.749 7.705-2.677 15.409-4.489 23.114-5.446-.809 79.314-.809 148.317 0 227.641z" fill="#dae4ea"/><path d="m454.382 134.386v23.123c0 8.16-6.617 14.777-14.777 14.777h-41.071l-18.816-.288-15.016.288h-1.436c-8.16 0-14.777-6.617-14.777-14.777v-23.123c0-8.169 6.617-14.787 14.777-14.787h76.34c8.159 0 14.776 6.618 14.776 14.787z" fill="#f7f9f9"/><g fill="#dae4ea"><path d="m454.382 134.386v17.566c-27.306 1.18-64.165 2.537-105.895 3.485v-21.051c0-8.169 6.617-14.787 14.777-14.787h76.34c8.161 0 14.778 6.618 14.778 14.787z"/><path d="m400.82 172.291h-37.557c-8.16 0-14.777-6.617-14.777-14.777v-23.133c0-8.16 6.617-14.777 14.777-14.777h37.557c-8.16 0-14.777 6.617-14.777 14.777v23.133c0 8.16 6.617 14.777 14.777 14.777z"/></g></g><g><path d="m291.991 365.419c-23.997 8.327-47.984 8.327-71.981 0-2.156-61.823-2.547-113.344-1.18-175.168.307-13.857.697-27.724 1.18-41.581 23.997-8.327 47.985-8.327 71.981 0 .483 13.857.874 27.724 1.18 41.581 1.367 61.824.977 113.345-1.18 175.168z" fill="#f7f9f9"/><path d="m293.172 190.252h-74.342c.307-13.857.697-27.724 1.18-41.581 23.997-8.327 47.985-8.327 71.981 0 .484 13.857.874 27.724 1.181 41.581z" fill="#dae4ea"/><path d="m243.128 370.866c-7.705-.957-15.409-2.77-23.114-5.446-2.639-75.68-2.639-141.068 0-216.749 7.705-2.677 15.409-4.489 23.114-5.446-.809 79.314-.809 148.317 0 227.641z" fill="#dae4ea"/><path d="m308.949 134.386v23.123c0 8.16-6.617 14.777-14.777 14.777h-40.473l-10.475-.5-23.956.5h-1.436c-8.16 0-14.777-6.617-14.777-14.777v-23.123c0-8.169 6.617-14.787 14.777-14.787h76.34c8.159 0 14.777 6.618 14.777 14.787z" fill="#f7f9f9"/><path d="m308.949 134.386v17.566c-27.306 1.18-64.165 2.537-105.895 3.485v-21.051c0-8.169 6.617-14.787 14.777-14.787h76.34c8.16 0 14.778 6.618 14.778 14.787z" fill="#dae4ea"/><path d="m255.386 172.291h-37.557c-8.16 0-14.777-6.617-14.777-14.777v-23.133c0-8.16 6.617-14.777 14.777-14.777h37.557c-8.16 0-14.777 6.617-14.777 14.777v23.133c0 8.16 6.617 14.777 14.777 14.777z" fill="#dae4ea"/><path d="m294.171 405.807-38.785 10.998-37.555-10.998c-8.162 0-14.779-6.617-14.779-14.779v-23.127c0-8.162 6.617-10.344 14.779-10.344l28.344-4.435h47.997c8.162 0 14.779 6.617 14.779 14.779v23.127c-.001 8.162-6.618 14.779-14.78 14.779z" fill="#f7f9f9"/><path d="m255.386 405.809h-37.557c-8.16 0-14.777-6.617-14.777-14.777v-23.133c0-8.16 6.617-14.777 14.777-14.777h37.557c-8.16 0-14.777 6.617-14.777 14.777v23.133c0 8.16 6.617 14.777 14.777 14.777z" fill="#dae4ea"/></g></g><path d="m256.663 134.156c96.824 0 188.397-3.367 239.804-5.675 15.404-.692 21.26-20.455 8.715-29.42-43.719-31.245-128.65-80.491-249.182-99.052-120.532 18.561-205.463 67.807-249.182 99.052-12.545 8.965-6.688 28.729 8.715 29.42 51.408 2.308 142.98 5.675 239.804 5.675z" fill="#f7f9f9"/><path d="m255.338 102.221c-70.367 0-138.32-1.82-188.433-3.627 43.513-24.785 107.539-52.987 189.095-66.252 81.556 13.265 145.582 41.467 189.096 66.252-50.114 1.807-118.066 3.627-188.433 3.627z" fill="#dae4ea"/><path d="m463.868 440.369-207.868 17.488-207.868-17.488c-6.119 0-11.079-4.96-11.079-11.079v-12.819c0-6.119 4.96-11.079 11.079-11.079h415.736c6.119 0 11.079 4.96 11.079 11.079v12.819c0 6.118-4.96 11.079-11.079 11.079z" fill="#f7f9f9"/><path d="m484.467 475.346-228.467 17.488-228.467-17.488c-6.407 0-11.601-5.194-11.601-11.601v-11.775c0-6.407 5.194-11.601 11.601-11.601h456.934c6.407 0 11.601 5.194 11.601 11.601v11.774c0 6.407-5.194 11.602-11.601 11.602z" fill="#dae4ea"/><path d="m500.02 510.322h-488.04c-6.616 0-11.98-5.364-11.98-11.98v-11.017c0-6.616 5.364-11.98 11.98-11.98h488.04c6.616 0 11.98 5.364 11.98 11.98v11.017c0 6.617-5.364 11.98-11.98 11.98z" fill="#a0aab7"/></g><circle cx="394.603" cy="394.59" fill="#f6e266" r="117.397"/><path d="m403.337 511.672c-2.884.216-5.799.319-8.734.319-64.837 0-117.396-52.57-117.396-117.406 0-64.826 52.559-117.396 117.396-117.396 2.935 0 5.85.103 8.734.319-60.758 4.47-108.662 55.186-108.662 117.077 0 61.901 47.904 112.617 108.662 117.087z" fill="#eab14d"/><circle cx="394.603" cy="394.59" fill="#eab14d" r="79.273"/><path d="m407.377 386.686c-9.839-2.864-20.746-6.341-27.046-10.411-2.935-1.896-2.913-4.94-2.639-6.586.576-3.457 3.416-7.703 9.659-9.252 13.721-3.405 22.559 2.729 23.052 3.082 3.395 2.526 8.198 1.852 10.762-1.525 2.581-3.397 1.919-8.243-1.479-10.824-.404-.306-7.097-5.27-18.009-6.77v-4.13c0-4.266-3.459-7.725-7.725-7.725s-7.725 3.459-7.725 7.725v4.606c-.855.166-1.718.348-2.598.566-11.128 2.761-19.44 11.281-21.178 21.707-1.483 8.893 2.155 17.363 9.495 22.104 6.426 4.151 15.439 7.705 31.111 12.267 8.135 2.368 12.32 7.162 11.482 13.153-1.277 9.134-11.582 14.115-20.63 14.164-10.445.057-14.57-.325-23.411-5.087-3.754-2.023-8.44-.619-10.464 3.137s-.619 8.441 3.137 10.465c9.011 4.855 15.219 6.376 23.056 6.795v4.766c0 4.266 3.459 7.725 7.725 7.725s7.725-3.459 7.725-7.725v-5.318c16.476-2.96 26.51-14.956 28.163-26.781 1.927-13.77-6.891-25.595-22.463-30.128z" fill="#f6e266"/></g></svg>