<?xml version="1.0" encoding="iso-8859-1"?>
<!-- Generator: Adobe Illustrator 19.0.0, SVG Export Plug-In . SVG Version: 6.00 Build 0)  -->
<svg version="1.1" id="Layer_1" xmlns="http://www.w3.org/2000/svg" xmlns:xlink="http://www.w3.org/1999/xlink" x="0px" y="0px"
	 viewBox="0 0 512 512" style="enable-background:new 0 0 512 512;" xml:space="preserve">
<path style="fill:#495A79;" d="M332,377c0-8.401-6.599-15-15-15H195c-8.401,0-15,6.599-15,15v60c0,8.399,6.599,15,15,15h122
	c8.401,0,15-6.601,15-15V377z"/>
<path style="fill:#42516D;" d="M332,377v60c0,8.399-6.599,15-15,15h-60v-90h60C325.401,362,332,368.599,332,377z"/>
<path style="fill:#E0E4EC;" d="M497,45v270H15V45c0-16.5,13.5-30,30-30h422C483.5,15,497,28.5,497,45z"/>
<path style="fill:#D1D7E3;" d="M497,45v270H257V15h210C483.5,15,497,28.5,497,45z"/>
<path style="fill:#495A79;" d="M467,0H45C20.099,0,0,20.099,0,45v270c0,8.399,6.599,17,15,17h482c8.401,0,15-8.601,15-17V45
	C512,20.099,491.901,0,467,0z M482,300H30V45c0-8.401,6.599-15,15-15h422c8.401,0,15,6.599,15,15V300z"/>
<path style="fill:#50B9FF;" d="M240,240c0-33.915-19.072-63.149-46.849-78.488C203.535,150.721,210,136.128,210,120
	c0-33.091-26.909-60-60-60s-60,26.909-60,60c0,16.128,6.467,30.721,16.851,41.512C79.074,176.851,60,206.085,60,240
	c0,15.284-1.633,30,15,30h150C241.633,270,240,255.284,240,240z"/>
<path style="fill:#42516D;" d="M437,270H287c-19.773,0-19.854-30,0-30h150C456.773,240,456.854,270,437,270z"/>
<path style="fill:#BAC2CF;" d="M437,60H287c-8.401,0-15,6.599-15,15v32.1l-15,9.899l-10.401,5.4c-8.699,6-8.699,19.2,0,25.201
	L257,153l15,9.901V195c0,8.399,6.599,15,15,15h150c8.401,0,15-6.601,15-15V75C452,66.599,445.401,60,437,60z"/>
<path style="fill:#ADB5C5;" d="M272,162.9l-15-9.901v-36l15-9.899V75c0-8.401,6.599-15,15-15h150c8.401,0,15,6.599,15,15v120
	c0,8.399-6.599,15-15,15H287c-8.401,0-15-6.601-15-15V162.9z"/>
<path style="fill:#42516D;" d="M512,45v270c0,8.399-6.599,17-15,17H257v-32h225V45c0-8.401-6.599-15-15-15H257V0h210
	C491.901,0,512,20.099,512,45z"/>
<path style="fill:#6F7D96;" d="M0,300v47c0,24.899,20.099,45,45,45h422c24.901,0,45-20.101,45-45v-47H0z"/>
<path style="fill:#66728B;" d="M512,300v47c0,24.899-20.099,45-45,45H257v-92H512z"/>
<path style="fill:#6F7D96;" d="M452,497c0-41.4-33.6-75-75-75H135c-42.599,0-75,34.799-75,75c0,8.399,6.599,15,15,15h362
	C445.401,512,452,505.399,452,497z"/>
<path style="fill:#66728B;" d="M452,497c0,8.399-6.599,15-15,15H257v-90h120C418.4,422,452,455.6,452,497z"/>
<g>
</g>
<g>
</g>
<g>
</g>
<g>
</g>
<g>
</g>
<g>
</g>
<g>
</g>
<g>
</g>
<g>
</g>
<g>
</g>
<g>
</g>
<g>
</g>
<g>
</g>
<g>
</g>
<g>
</g>
</svg>
