<?xml version="1.0" encoding="iso-8859-1"?>
<!-- Generator: Adobe Illustrator 21.0.0, SVG Export Plug-In . SVG Version: 6.00 Build 0)  -->
<svg xmlns="http://www.w3.org/2000/svg" xmlns:xlink="http://www.w3.org/1999/xlink" version="1.1" id="Capa_1" x="0px" y="0px" viewBox="0 0 512 512" style="enable-background:new 0 0 512 512;" xml:space="preserve" width="512" height="512">
<g>
	<path style="fill:#E8F6FC;" d="M330,512H35c-8.284,0-15-6.716-15-15V72C20,32.299,52.299,0,92,0h326.5   c6.066,0,11.536,3.654,13.858,9.26c2.321,5.605,1.038,12.057-3.252,16.347L345,79.713V497C345,505.284,338.284,512,330,512z"/>
	<path style="fill:#CEE2E9;" d="M432.358,9.26C430.036,3.654,424.566,0,418.5,0H182.667v512H330c8.284,0,15-6.716,15-15V79.713   l84.106-54.106C433.396,21.316,434.68,14.865,432.358,9.26z"/>
	<path style="fill:#0095FF;" d="M285,312H140c-8.284,0-15-6.716-15-15s6.716-15,15-15H285c8.284,0,15,6.716,15,15   S293.284,312,285,312z"/>
	<path style="fill-rule:evenodd;clip-rule:evenodd;fill:#00EED1;" d="M80,312c8.262,0,15-6.739,15-15c0-8.262-6.739-15-15-15   c-8.262,0-15,6.738-15,15C65,305.261,71.738,312,80,312z"/>
	<path style="fill:#0095FF;" d="M285,372H140c-8.284,0-15-6.716-15-15s6.716-15,15-15H285c8.284,0,15,6.716,15,15   S293.284,372,285,372z"/>
	<path style="fill-rule:evenodd;clip-rule:evenodd;fill:#00EED1;" d="M80,372c8.262,0,15-6.739,15-15c0-8.262-6.739-15-15-15   c-8.262,0-15,6.738-15,15C65,365.262,71.738,372,80,372z"/>
	<path style="fill:#0095FF;" d="M285,432H140c-8.284,0-15-6.716-15-15s6.716-15,15-15H285c8.284,0,15,6.716,15,15   S293.284,432,285,432z"/>
	<path style="fill-rule:evenodd;clip-rule:evenodd;fill:#00EED1;" d="M80,432c8.262,0,15-6.738,15-15c0-8.262-6.739-15-15-15   c-8.262,0-15,6.738-15,15C65,425.262,71.738,432,80,432z"/>
	<path style="fill:#00EED1;" d="M182.667,213.691c-37.086,0-67.258-30.172-67.258-67.259c0-37.086,30.172-67.258,67.258-67.258   c37.087,0,67.258,30.172,67.258,67.258C249.925,183.519,219.753,213.691,182.667,213.691z"/>
	<path style="fill:#00CCB3;" d="M182.667,79.174v134.517c37.087,0,67.258-30.172,67.258-67.259   C249.925,109.345,219.753,79.174,182.667,79.174z"/>
	<path style="fill:#212CBB;" d="M182.634,178.448L182.634,178.448c-3.979,0-7.794-1.58-10.607-4.394l-18.829-18.829   c-5.858-5.858-5.858-15.355,0-21.213c5.858-5.858,15.355-5.858,21.213,0l8.222,8.223l66.704-66.703   c5.858-5.858,15.356-5.858,21.213,0c5.858,5.857,5.858,15.355,0,21.213l-77.31,77.31   C190.427,176.868,186.612,178.448,182.634,178.448z"/>
	<path style="fill:#00215A;" d="M477,276.998H360c-8.284,0-15-6.716-15-15V73.5C345,32.972,377.972,0,418.5,0S492,32.972,492,73.5   v188.498C492,270.282,485.284,276.998,477,276.998z"/>
	<path style="fill:#00215A;" d="M270.55,75.532c-5.856-5.858-15.354-5.858-21.213,0l-66.671,66.67v36.244   c3.966-0.009,7.768-1.586,10.574-4.392l77.31-77.31C276.409,90.888,276.409,81.39,270.55,75.532z"/>
	<path style="fill:#0063E5;" d="M285,282H182.667v30H285c8.284,0,15-6.716,15-15S293.284,282,285,282z"/>
	<path style="fill:#0063E5;" d="M285,342H182.667v30H285c8.284,0,15-6.716,15-15S293.284,342,285,342z"/>
	<path style="fill:#0063E5;" d="M285,402H182.667v30H285c8.284,0,15-6.716,15-15S293.284,402,285,402z"/>
</g>















</svg>
