<svg height="512" viewBox="0 0 64 64" width="512" xmlns="http://www.w3.org/2000/svg"><g id="Setting"><path d="m35 37v10.72a16.135 16.135 0 0 0 8-4.1v-6.62z" fill="#9bc9ff"/><path d="m45 35a2 2 0 0 0 -2-2h-8a2 2 0 0 0 0 4h8a2 2 0 0 0 2-2z" fill="#9bc9ff"/><path d="m20.351 42.945c-.17-.181-.338-.362-.5-.55.162.188.329.37.5.55z" fill="none"/><path d="m19 41.34c.116.161.251.306.373.462-.2-.257-.4-.514-.586-.784.072.107.138.218.213.322z" fill="none"/><path d="m21.429 43.988c-.123-.108-.243-.217-.362-.328.119.111.239.221.362.328z" fill="none"/><path d="m18.665 40.834q-.348-.525-.655-1.077.308.552.655 1.077z" fill="none"/><path d="m16.67 36.565q-.17-.565-.294-1.144.124.579.294 1.144z" fill="none"/><path d="m16.076 33.5c-.046-.5-.076-.994-.076-1.5 0 .506.03 1 .076 1.5z" fill="none"/><path d="m17.891 39.543a15.789 15.789 0 0 1 -1.148-2.721 15.9 15.9 0 0 0 1.148 2.721z" fill="none"/><path d="m22.63 44.95c-.049-.035-.1-.072-.144-.107.048.035.095.072.144.107z" fill="none"/><path d="m16.29 35c-.067-.353-.12-.71-.163-1.07q.065.536.163 1.07z" fill="none"/><path d="m39 46.384c.088-.043.171-.093.258-.138-.219.113-.442.22-.667.322.136-.062.275-.118.409-.184z" fill="none"/><path d="m25.253 46.493c-.058-.027-.115-.056-.173-.084z" fill="none"/><path d="m42.142 44.373c-.355.291-.725.565-1.1.826q.566-.39 1.1-.826z" fill="none"/><path d="m40 13h-2l-1.08 3.779a15.906 15.906 0 0 1 4.906 2.612z" fill="none"/><path d="m40.577 45.492c-.226.143-.453.284-.686.416.233-.132.46-.273.686-.416z" fill="none"/><path d="m26.716 47.088c-.165-.058-.329-.117-.492-.18.162.064.327.121.492.18z" fill="none"/><path d="m28.374 47.572c-.3-.069-.595-.143-.887-.228.291.087.589.156.887.228z" fill="none"/><path d="m36.519 47.342c-.366.108-.737.2-1.114.287q.565-.123 1.114-.287z" fill="none"/><path d="m38.082 46.8q-.576.237-1.175.43c.398-.13.793-.275 1.175-.43z" fill="none"/><path d="m20.14 21.25-.44.19-6.83-6.83a9.974 9.974 0 0 0 2.56 9.63l.03.03a10.022 10.022 0 0 0 1.828 1.439 15.97 15.97 0 0 1 2.912-4.483z" fill="none"/><path d="m35 47.72c.05-.009.1-.023.147-.033-.048.009-.1.013-.147.022z" fill="none"/><path d="m42.325 44.212c.229-.193.458-.386.675-.592v-.02c-.221.208-.443.416-.675.612z" fill="none"/><path d="m28.872 47.69c.043.008.085.022.128.03v-.011c-.042-.009-.086-.009-.128-.019z" fill="none"/><path d="m16.085 30.35c0-.033.011-.065.015-.1 0 .036-.012.067-.015.1z" fill="none"/><g fill="#9bc9ff"><path d="m47.913 33.664c-.021.206-.064.406-.093.61.029-.204.072-.404.093-.61z"/><path d="m46.01 39.723c-.142.257-.3.5-.455.75.155-.248.313-.493.455-.75z"/><path d="m46.7 38.311c-.115.267-.249.524-.378.784.132-.26.266-.516.378-.784z"/><path d="m35.421 16.376q.594.129 1.171.3c-.385-.115-.775-.214-1.171-.3z"/><path d="m32.44 16.01v.012c.381.011.761.021 1.135.058q-.561-.054-1.135-.07z"/><path d="m61 37v-10h-6.56a22.743 22.743 0 0 0 -3.03-7.34l4.63-4.63-7.07-7.07-4.63 4.63a22.743 22.743 0 0 0 -7.34-3.03v-6.56h-10v5.26a9.924 9.924 0 0 1 5.44 7.75q.573.015 1.136.07c.079.007.157.021.237.03.417.046.829.11 1.236.188.125.024.249.051.372.078.4.086.786.185 1.171.3.074.022.149.04.222.063.035.011.071.019.106.03-.035-.011-.071-.019-.106-.03.036.011.07.027.106.039l1.08-3.778h2l1.826 6.391c.067.052.139.1.2.153-.073-.059-.137-.127-.211-.184.074.057.138.125.211.184.224.18.435.374.648.565.2.176.4.346.584.531.313.311.608.64.9.975.171.2.333.408.495.617.235.3.467.61.68.93.126.19.236.388.354.583.174.287.345.576.5.875.11.21.209.425.309.641q.211.452.395.917c.086.22.168.442.244.667.112.327.209.66.3 1 .059.219.12.437.169.659.084.377.147.76.2 1.146.028.192.066.381.088.575a16.308 16.308 0 0 1 .108 1.775 16.049 16.049 0 0 1 -.087 1.664c-.021.206-.064.406-.093.61-.048.335-.09.673-.158 1-.052.25-.126.491-.19.737-.07.272-.132.548-.217.814s-.189.523-.286.784c-.088.234-.168.471-.266.7-.115.268-.249.524-.378.784-.1.21-.2.424-.315.628-.142.257-.3.5-.455.75-.122.2-.239.393-.37.582-.162.237-.339.462-.514.689-.145.187-.286.377-.438.558-.175.208-.362.4-.548.6s-.345.373-.528.551c-.054.053-.1.112-.157.164-.217.206-.446.4-.675.592-.062.053-.12.109-.183.161q-.534.437-1.1.826c-.15.1-.308.2-.461.293-.226.143-.453.284-.686.416-.208.118-.419.229-.633.338-.087.045-.17.095-.258.138-.134.066-.273.122-.409.184-.17.077-.336.157-.509.228-.384.159-.777.3-1.175.43-.128.041-.258.078-.388.116q-.549.163-1.114.287c-.086.018-.171.04-.258.058-.049.01-.1.024-.147.033-.281.052-.572.082-.859.12-.192.026-.381.062-.576.081-.516.05-1.039.079-1.565.079s-1.049-.029-1.565-.079c-.2-.019-.384-.055-.577-.081-.287-.038-.577-.068-.858-.12-.043-.008-.085-.022-.128-.03-.168-.034-.332-.08-.5-.118-.3-.07-.6-.141-.887-.228-.261-.077-.515-.166-.771-.256-.165-.059-.33-.116-.492-.18-.33-.128-.652-.267-.971-.415l-.173-.084c-.368-.177-.729-.363-1.08-.567a15.916 15.916 0 0 1 -1.37-.892c-.049-.035-.1-.072-.144-.107q-.548-.407-1.057-.855c-.123-.107-.243-.217-.362-.328q-.369-.346-.716-.715c-.171-.18-.338-.362-.5-.55s-.322-.392-.478-.593c-.122-.156-.257-.3-.373-.462-.075-.1-.141-.215-.213-.322-.042-.061-.082-.123-.122-.184q-.348-.525-.655-1.077c-.039-.072-.081-.142-.119-.214a15.9 15.9 0 0 1 -1.148-2.721c-.027-.085-.048-.172-.073-.257q-.172-.56-.296-1.139c-.031-.141-.059-.283-.086-.425q-.1-.53-.163-1.07c-.017-.143-.038-.284-.051-.428-.046-.498-.076-.992-.076-1.498a16.073 16.073 0 0 1 .085-1.65c0-.033.011-.064.015-.1a15.878 15.878 0 0 1 1.188-4.544 10.022 10.022 0 0 1 -1.828-1.436l-.03-.03a9.974 9.974 0 0 1 -2.56-9.63l6.83 6.83.44-.19.056-.024a16.019 16.019 0 0 1 5.28-3.826v-.01l1.29-3.02-3.61-3.61a24.743 24.743 0 0 0 -3.5 1.83l-4.626-4.63-7.07 7.07 4.63 4.63a22.743 22.743 0 0 0 -3.03 7.34h-6.56v10h6.56a22.743 22.743 0 0 0 3.03 7.34l-4.63 4.63 7.07 7.07 4.63-4.63a22.743 22.743 0 0 0 7.34 3.03v6.56h10v-6.56a22.743 22.743 0 0 0 7.34-3.03l4.63 4.63 7.07-7.07-4.63-4.63a22.743 22.743 0 0 0 3.03-7.34z"/><path d="m33.565 47.921c-.515.05-1.037.079-1.565.079.526 0 1.049-.029 1.565-.079z"/><path d="m45.185 41.055c-.162.237-.339.462-.514.689.175-.227.352-.452.514-.689z"/><path d="m44.233 42.3c-.175.208-.362.4-.548.6.186-.194.373-.39.548-.6z"/><path d="m47.255 36.827c-.084.267-.189.524-.286.784.097-.261.202-.517.286-.784z"/><path d="m44.158 21.615c.172.2.333.408.495.617-.162-.209-.324-.416-.495-.617z"/><path d="m45.333 23.162c.126.189.236.388.354.583-.118-.195-.228-.393-.354-.583z"/><path d="m42.679 20.109c.2.176.4.346.584.531-.187-.185-.388-.355-.584-.531z"/><path d="m47.808 29.647c.028.192.066.381.088.575-.022-.194-.06-.383-.088-.575z"/><path d="m33.813 16.11q.625.071 1.236.188c-.407-.078-.819-.142-1.236-.188z"/><path d="m47.435 27.842c.059.219.12.437.169.659-.049-.222-.11-.44-.169-.659z"/><path d="m46.891 26.178c.086.22.168.442.244.667-.076-.225-.158-.445-.244-.667z"/><path d="m32 48c-.528 0-1.05-.029-1.565-.079.516.05 1.039.079 1.565.079z"/><path d="m46.187 24.62c.11.21.209.425.309.641-.096-.216-.196-.431-.309-.641z"/><path d="m47.662 35.276c-.052.25-.126.491-.19.737.064-.246.138-.487.19-.737z"/><path d="m43 43.62c.055-.052.1-.111.157-.164-.051.049-.106.094-.157.143z"/><path d="m29 47.72c.281.052.571.082.858.12-.288-.038-.575-.077-.858-.131z"/><path d="m34.141 47.84c.287-.038.578-.068.859-.12v-.011c-.283.054-.571.091-.859.131z"/><path d="m19.851 42.4c-.165-.192-.322-.392-.478-.593.156.193.313.393.478.593z"/><path d="m46.5 25.261c.14.3.274.606.395.917q-.187-.466-.395-.917z"/><path d="m18.787 41.018c-.042-.061-.082-.123-.122-.184.035.066.08.123.122.184z"/><path d="m45.687 23.745c.173.287.345.576.5.875-.155-.299-.326-.588-.5-.875z"/><path d="m35.049 16.3c.125.024.249.051.372.078-.121-.029-.247-.056-.372-.078z"/><path d="m48 32a16.049 16.049 0 0 1 -.087 1.664 16.049 16.049 0 0 0 .087-1.664z"/><path d="m47.9 30.222a16.293 16.293 0 0 1 .1 1.778 16.308 16.308 0 0 0 -.1-1.778z"/><path d="m16.127 33.926c-.017-.143-.038-.284-.051-.428.013.144.034.285.051.428z"/><path d="m33.576 16.08c.079.007.157.021.237.03-.08-.01-.158-.023-.237-.03z"/><path d="m47.6 28.5c.084.376.147.76.2 1.146-.049-.385-.112-.768-.2-1.146z"/><path d="m21.067 43.66c-.247-.23-.484-.47-.716-.715q.349.369.716.715z"/><path d="m47.135 26.845c.112.327.21.661.3 1-.091-.34-.188-.673-.3-1z"/><path d="m24 45.842c.351.2.712.39 1.08.567-.367-.178-.728-.366-1.08-.569z"/><path d="m36.592 16.677c.074.022.149.04.222.063-.073-.023-.148-.04-.222-.063z"/><path d="m17.288 25.709a15.878 15.878 0 0 0 -1.188 4.544 15.841 15.841 0 0 1 1.19-4.543z"/><path d="m42.031 19.544c.223.18.435.374.648.565-.213-.191-.424-.385-.648-.565z"/><path d="m16.376 35.421c-.031-.141-.059-.283-.086-.425.027.142.055.284.086.425z"/><path d="m16.743 36.822c-.027-.084-.048-.172-.073-.257.03.085.046.172.073.257z"/><path d="m22.63 44.95a15.916 15.916 0 0 0 1.37.892c-.473-.276-.929-.575-1.37-.892z"/><path d="m18.01 39.757c-.039-.072-.081-.142-.119-.214.038.072.08.142.119.214z"/><path d="m44.653 22.232c.234.3.467.61.68.93-.213-.32-.445-.626-.68-.93z"/><path d="m43.263 20.64c.313.311.608.64.9.975-.292-.335-.587-.664-.9-.975z"/><path d="m36.907 47.226c-.128.042-.258.078-.388.116.13-.042.26-.075.388-.116z"/><path d="m43.685 42.905c-.173.186-.345.374-.528.551.183-.178.355-.365.528-.551z"/><path d="m41.038 45.2c-.151.1-.308.2-.461.293.153-.099.311-.193.461-.293z"/><path d="m20.2 21.226 4.45-1.906.826-1.92a16.019 16.019 0 0 0 -5.276 3.826z"/><path d="m42.325 44.212c-.062.053-.12.11-.183.161.063-.052.121-.108.183-.161z"/><path d="m28.872 47.69c-.168-.034-.332-.079-.5-.118.168.038.328.084.5.118z"/><path d="m39.891 45.908c-.208.118-.419.23-.633.338.214-.109.425-.22.633-.338z"/><path d="m35.405 47.629c-.086.018-.171.04-.258.058.087-.018.172-.04.258-.058z"/><path d="m34.141 47.84c-.192.026-.381.062-.576.081.195-.021.384-.055.576-.081z"/><path d="m38.591 46.568c-.169.077-.337.157-.509.228.173-.071.339-.151.509-.228z"/><path d="m30.435 47.921c-.2-.019-.384-.055-.577-.081.193.026.382.06.577.081z"/><path d="m16 32a16.073 16.073 0 0 1 .085-1.65 16.073 16.073 0 0 0 -.085 1.65z"/><path d="m26.224 46.908c-.328-.129-.653-.266-.971-.415.319.148.641.287.971.415z"/><path d="m46.969 37.611c-.088.234-.168.471-.266.7.097-.229.178-.466.266-.7z"/><path d="m22.486 44.843c-.365-.269-.716-.557-1.057-.855q.51.45 1.057.855z"/><path d="m47.472 36.013c-.07.272-.133.548-.217.814.085-.266.145-.542.217-.814z"/><path d="m47.82 34.274c-.048.335-.09.673-.158 1 .068-.327.11-.665.158-1z"/><path d="m44.671 41.744c-.145.187-.286.378-.438.558.152-.181.293-.371.438-.558z"/><path d="m46.325 39.1c-.1.21-.2.424-.315.628.113-.209.211-.423.315-.628z"/><path d="m27.487 47.344c-.26-.078-.516-.165-.771-.256.256.09.51.179.771.256z"/><path d="m45.555 40.473c-.122.2-.239.393-.37.582.131-.189.248-.387.37-.582z"/></g><path d="m61 26h-5.77a23.4 23.4 0 0 0 -2.56-6.19l4.08-4.07a1.008 1.008 0 0 0 0-1.42l-7.07-7.07a1.008 1.008 0 0 0 -1.42 0l-4.07 4.08a23.4 23.4 0 0 0 -6.19-2.56v-5.77a1 1 0 0 0 -1-1h-10a1 1 0 0 0 -1 1v3.77a11.133 11.133 0 0 0 -6.32-.2 1.035 1.035 0 0 0 -.71.71 1.022 1.022 0 0 0 .26.97l2.21 2.21c-.55.27-1.1.56-1.63.87l-4.07-4.08a1.008 1.008 0 0 0 -1.42 0l-7.07 7.07a1.008 1.008 0 0 0 0 1.42l4.08 4.07a23.4 23.4 0 0 0 -2.56 6.19h-5.77a1 1 0 0 0 -1 1v10a1 1 0 0 0 1 1h5.77a23.4 23.4 0 0 0 2.56 6.19l-4.08 4.07a1.008 1.008 0 0 0 0 1.42l7.07 7.07a1.008 1.008 0 0 0 1.42 0l4.07-4.08a23.4 23.4 0 0 0 6.19 2.56v5.77a1 1 0 0 0 1 1h10a1 1 0 0 0 1-1v-5.77a23.4 23.4 0 0 0 6.19-2.56l4.07 4.08a1.008 1.008 0 0 0 1.42 0l7.07-7.07a1.008 1.008 0 0 0 0-1.42l-4.08-4.07a23.4 23.4 0 0 0 2.56-6.19h5.77a1 1 0 0 0 1-1v-10a1 1 0 0 0 -1-1zm-34.44-16.84a8.426 8.426 0 0 1 2.33 1.68 8.774 8.774 0 0 1 2.56 5.34c.01.01.01.1.02.11a8.871 8.871 0 0 1 -2.58 7.27c-.17.17-.36.34-.54.5a1.011 1.011 0 0 0 -.35.76v21.63a14.973 14.973 0 0 1 -3-1.18v-14.27a1 1 0 0 0 -2 0v13a15.013 15.013 0 0 1 -3-3.01v-14.43a1.007 1.007 0 0 0 -.65-.94 8.461 8.461 0 0 1 -1.54-.76 9.6 9.6 0 0 1 -1.67-1.32 8.921 8.921 0 0 1 -2.6-6.85l5.45 5.46a1.013 1.013 0 0 0 1.11.21l4.94-2.12a.983.983 0 0 0 .53-.53l2.12-4.95a1 1 0 0 0 -.21-1.1l-3.62-3.62h-.01l-1.82-1.82a8.92 8.92 0 0 1 4.53.94zm8.49 11.16.95 2.84v8.84h-1a3 3 0 0 0 -1 5.82v9.03a14.882 14.882 0 0 1 -4 0v-21.58c.11-.1.21-.19.31-.29a10.907 10.907 0 0 0 3.19-7.9 14.751 14.751 0 0 1 2.19.38l-.65 2.27a.991.991 0 0 0 .01.59zm2.9 2.36-.9-2.7 1.7-5.98h.5l1.7 5.98-.9 2.7a1.185 1.185 0 0 0 -.05.32v9h-2v-9a1.185 1.185 0 0 0 -.05-.32zm5.05 11.32a1 1 0 0 1 0 2h-8a1 1 0 0 1 0-2zm0-2h-1v-8.84l.59-1.78a14.969 14.969 0 0 1 1.41 19.6v-3.16a3 3 0 0 0 -1-5.82zm-4 8a1 1 0 0 0 -1 1v4.75a15.847 15.847 0 0 1 -2 .71v-8.46h6v5.17a15.494 15.494 0 0 1 -2 1.52v-3.69a1 1 0 0 0 -1-1zm-21-12.77v10.15a15.02 15.02 0 0 1 -1-5.38 14.828 14.828 0 0 1 .83-4.87c.06.03.11.07.17.1zm-8.63-12.2 5.66-5.66 3.92 3.93a1.015 1.015 0 0 0 1.24.14 23.466 23.466 0 0 1 2.76-1.48l2.63 2.64-1.69 3.96-3.96 1.69-6.35-6.35a1.028 1.028 0 0 0 -.97-.26 1.054 1.054 0 0 0 -.71.71 10.588 10.588 0 0 0 -.36 2.84zm50.63 20.97h-5.56a1 1 0 0 0 -.98.79 21.808 21.808 0 0 1 -2.89 7.01 1 1 0 0 0 .13 1.25l3.93 3.92-5.66 5.66-3.92-3.93a1.012 1.012 0 0 0 -1.25-.13 21.808 21.808 0 0 1 -7.01 2.89 1 1 0 0 0 -.79.98v5.56h-8v-5.56a1 1 0 0 0 -.79-.98 21.808 21.808 0 0 1 -7.01-2.89 1.012 1.012 0 0 0 -1.25.13l-3.92 3.93-5.66-5.66 3.93-3.92a1 1 0 0 0 .13-1.25 21.808 21.808 0 0 1 -2.89-7.01 1 1 0 0 0 -.98-.79h-5.56v-8h5.56a1 1 0 0 0 .98-.79 21.515 21.515 0 0 1 2-5.47 11.231 11.231 0 0 0 2.21 3.24 11.853 11.853 0 0 0 1.33 1.11 16.97 16.97 0 0 0 12.74 22.61 17.2 17.2 0 0 0 3.18.3 17.384 17.384 0 0 0 3.19-.3 16.994 16.994 0 0 0 7.51-29.9l-1.74-6.07a1 1 0 0 0 -.96-.73h-2a1 1 0 0 0 -.96.73l-.81 2.81a16.785 16.785 0 0 0 -2.92-.48 10.881 10.881 0 0 0 -3-5.64 10.74 10.74 0 0 0 -2.31-1.75v-3.67h8v5.56a1 1 0 0 0 .79.98 21.808 21.808 0 0 1 7.01 2.89 1.012 1.012 0 0 0 1.25-.13l3.92-3.93 5.66 5.66-3.93 3.92a1 1 0 0 0 -.13 1.25 21.808 21.808 0 0 1 2.89 7.01 1 1 0 0 0 .98.79h5.56z" fill="#1e81ce"/></g></svg>