<svg id="Layer_1" enable-background="new 0 0 512 512" height="512" viewBox="0 0 512 512" width="512" xmlns="http://www.w3.org/2000/svg"><g><g><path d="m466.875 421.625h-60.25c-8.284 0-15-6.716-15-15v-180.75c0-8.284 6.716-15 15-15h60.25c8.284 0 15 6.716 15 15v180.75c0 8.284-6.716 15-15 15z" fill="#ffe45c"/></g><path d="m466.875 210.875h-30.125v210.75h30.125c8.284 0 15-6.716 15-15v-180.75c0-8.284-6.716-15-15-15z" fill="#ffc247"/><g><path d="m346.375 421.625h-60.25c-8.284 0-15-6.716-15-15v-301.25c0-8.284 6.716-15 15-15h60.25c8.284 0 15 6.716 15 15v301.25c0 8.284-6.716 15-15 15z" fill="#4ab8f7"/></g><path d="m346.375 90.375h-30.125v331.25h30.125c8.284 0 15-6.716 15-15v-301.25c0-8.284-6.716-15-15-15z" fill="#4a7aff"/><g><path d="m225.875 421.625h-60.25c-8.284 0-15-6.716-15-15v-241c0-8.284 6.716-15 15-15h60.25c8.284 0 15 6.716 15 15v241c0 8.284-6.716 15-15 15z" fill="#ff73a5"/></g><path d="m225.875 150.625h-30.125v271h30.125c8.284 0 15-6.716 15-15v-241c0-8.284-6.716-15-15-15z" fill="#ff468c"/><g><path d="m105.375 421.625h-60.25c-8.284 0-15-6.716-15-15v-361.5c0-8.284 6.716-15 15-15h60.25c8.284 0 15 6.716 15 15v361.5c0 8.284-6.716 15-15 15z" fill="#64e1dc"/></g><path d="m105.375 30.125h-30.125v391.5h30.125c8.284 0 15-6.716 15-15v-361.5c0-8.284-6.716-15-15-15z" fill="#00c8c8"/><g><path d="m497 481.875h-482c-8.284 0-15-6.716-15-15v-60.25c0-8.284 6.716-15 15-15h482c8.284 0 15 6.716 15 15v60.25c0 8.284-6.716 15-15 15z" fill="#636978"/></g><path d="m497 391.625h-241v90.25h241c8.284 0 15-6.716 15-15v-60.25c0-8.284-6.716-15-15-15z" fill="#414952"/></g></svg>